<?xml version="1.0" encoding="UTF-8" standalone="no"?>
<!-- Created with Inkscape (http://www.inkscape.org/) -->

<svg
   xmlns:dc="http://purl.org/dc/elements/1.1/"
   xmlns:cc="http://creativecommons.org/ns#"
   xmlns:rdf="http://www.w3.org/1999/02/22-rdf-syntax-ns#"
   xmlns:svg="http://www.w3.org/2000/svg"
   xmlns="http://www.w3.org/2000/svg"
   xmlns:sodipodi="http://sodipodi.sourceforge.net/DTD/sodipodi-0.dtd"
   xmlns:inkscape="http://www.inkscape.org/namespaces/inkscape"
   width="72mm"
   height="72mm"
   viewBox="0 0 255.11811 255.11811"
   id="svg2"
   version="1.1"
   inkscape:version="0.91 r13725"
   sodipodi:docname="love.svg">
  <defs
     id="defs4" />
  <sodipodi:namedview
     id="base"
     pagecolor="#ffffff"
     bordercolor="#666666"
     borderopacity="1.0"
     inkscape:pageopacity="0.0"
     inkscape:pageshadow="2"
     inkscape:zoom="3.959798"
     inkscape:cx="118.69975"
     inkscape:cy="125.59732"
     inkscape:document-units="px"
     inkscape:current-layer="layer2"
     showgrid="false"
     inkscape:window-width="2560"
     inkscape:window-height="1377"
     inkscape:window-x="-8"
     inkscape:window-y="-8"
     inkscape:window-maximized="1" />
  <metadata
     id="metadata7">
    <rdf:RDF>
      <cc:Work
         rdf:about="">
        <dc:format>image/svg+xml</dc:format>
        <dc:type
           rdf:resource="http://purl.org/dc/dcmitype/StillImage" />
        <dc:title></dc:title>
      </cc:Work>
    </rdf:RDF>
  </metadata>
  <g
     inkscape:groupmode="layer"
     id="layer2"
     inkscape:label="Help"
     style="display:none">
    <path
       style="fill:none;fill-rule:evenodd;stroke:#00ff00;stroke-width:1.08269274px;stroke-linecap:butt;stroke-linejoin:miter;stroke-opacity:1"
       d="M 43.433965,254.77622 105.44223,-0.294789"
       id="path3340-4-1-06"
       inkscape:connector-curvature="0" />
    <path
       style="fill:none;fill-rule:evenodd;stroke:#00ff00;stroke-width:1.08269274px;stroke-linecap:butt;stroke-linejoin:miter;stroke-opacity:1"
       d="M 93.576821,254.95482 155.58509,-0.116199"
       id="path3340-4-1-0-8"
       inkscape:connector-curvature="0" />
    <path
       style="fill:none;fill-rule:evenodd;stroke:#00ff00;stroke-width:1.08269274px;stroke-linecap:butt;stroke-linejoin:miter;stroke-opacity:1"
       d="M 138.43396,255.95482 200.44223,0.883791"
       id="path3340-4-1-0-9-8"
       inkscape:connector-curvature="0" />
    <path
       style="fill:none;fill-rule:evenodd;stroke:#00ff00;stroke-width:1.08269274px;stroke-linecap:butt;stroke-linejoin:miter;stroke-opacity:1"
       d="M 178.21967,255.74052 240.22794,0.669511"
       id="path3340-4-1-0-9-6-2"
       inkscape:connector-curvature="0" />
    <path
       style="fill:none;fill-rule:evenodd;stroke:#00ff00;stroke-width:1.14218163px;stroke-linecap:butt;stroke-linejoin:miter;stroke-opacity:1"
       d="M 1.903285,254.56762 256.55814,185.44537"
       id="path3340-7"
       inkscape:connector-curvature="0" />
    <path
       style="fill:none;fill-rule:evenodd;stroke:#00ff00;stroke-width:1.14218163px;stroke-linecap:butt;stroke-linejoin:miter;stroke-opacity:1"
       d="M -0.223055,174.9701 254.43181,105.8477"
       id="path3340-4-7"
       inkscape:connector-curvature="0" />
  </g>
  <g
     inkscape:label="Layer 1"
     inkscape:groupmode="layer"
     id="layer1"
     transform="translate(0,-797.24409)">
    <path
       style="fill:none;fill-rule:evenodd;stroke:#FFFFFF;stroke-width:4;stroke-linecap:round;stroke-linejoin:miter;stroke-miterlimit:4;stroke-dasharray:none;stroke-opacity:1"
       d="m 32.270256,963.16801 c 37.670885,-20.66479 68.728064,-78.17035 78.192344,-110.06008 10.84629,-36.54638 1.59908,-88.61282 -21.585831,-19.31589 -9.546063,28.53204 -13.489664,114.31299 -22.926093,143.20646 -18.835442,57.6724 -77.49248,95.7894 -59.7976787,55.1566 16.9726937,-38.97453 72.8528657,42.8616 116.1948727,-46.43928 22.50657,-46.37205 -2.40193,-64.57969 -20.93928,-21.39543 -19.934754,46.43961 6.07412,73.41501 31.17548,43.13151 10.48561,-12.65033 18.45817,-38.2415 18.47501,-62.74644 0.0161,-23.38487 -10.56481,-9.06012 -6.06484,13.78192 9.93719,50.44152 -5.94178,87.99722 28.54675,-3.96637 29.18566,-77.82348 -24.26095,20.39321 22.26007,-2.17523 30.88192,-14.98155 30.64501,-49.00146 17.24593,-35.66049 -14.76856,14.70452 -0.69283,57.79764 -24.51525,79.97331 -23.79958,22.1544 -2.73356,-25.65821 24.67783,-15.67214 22.48713,8.19203 34.86177,8.19555 39.4263,-13.62161"
       id="path3338"
       inkscape:connector-curvature="0"
       sodipodi:nodetypes="cssssssssssssssc" />
  </g>
</svg>
